<?xml version="1.0" encoding="UTF-8" standalone="no"?>
<!-- Created with Inkscape (http://www.inkscape.org/) -->

<svg xmlns:dc="http://purl.org/dc/elements/1.1/" xmlns:cc="http://creativecommons.org/ns#" xmlns:rdf="http://www.w3.org/1999/02/22-rdf-syntax-ns#" xmlns:svg="http://www.w3.org/2000/svg" xmlns="http://www.w3.org/2000/svg" xmlns:sodipodi="http://sodipodi.sourceforge.net/DTD/sodipodi-0.dtd" xmlns:inkscape="http://www.inkscape.org/namespaces/inkscape" width="64" height="64" viewBox="0 0 16.933333 16.933333" version="1.1" id="svg8" inkscape:version="0.92.5 (2060ec1f9f, 2020-04-08)" sodipodi:docname="contentdroplets-pageaccess-icon.svg">
  <defs id="defs2">
    <marker inkscape:stockid="Arrow1Lstart" orient="auto" refY="0.0" refX="0.0" id="marker1178" style="overflow:visible" inkscape:isstock="true">
      <path id="path1176" d="M 0.0,0.0 L 5.0,-5.0 L -12.5,0.0 L 5.0,5.0 L 0.0,0.0 z " style="fill-rule:evenodd;stroke:black;stroke-width:1pt;stroke-opacity:1" transform="scale(0.8) translate(12.5,0)" />
    </marker>
    <marker inkscape:stockid="Arrow1Lstart" orient="auto" refY="0.0" refX="0.0" id="Arrow1Lstart" style="overflow:visible" inkscape:isstock="true">
      <path id="path900" d="M 0.0,0.0 L 5.0,-5.0 L -12.5,0.0 L 5.0,5.0 L 0.0,0.0 z " style="fill-rule:evenodd;stroke:black;stroke-width:1pt;stroke-opacity:1" transform="scale(0.8) translate(12.5,0)" />
    </marker>
  </defs>
  <sodipodi:namedview id="base" pagecolor="#ffffff" bordercolor="#666666" borderopacity="1.0" inkscape:pageopacity="0.0" inkscape:pageshadow="2" inkscape:zoom="10" inkscape:cx="-7.649466" inkscape:cy="33.665038" inkscape:document-units="px" inkscape:current-layer="g872" showgrid="false" units="px" width="64px" inkscape:pagecheckerboard="false" inkscape:snap-text-baseline="false" showguides="true" inkscape:guide-bbox="true" inkscape:window-width="1920" inkscape:window-height="1009" inkscape:window-x="0" inkscape:window-y="0" inkscape:window-maximized="1">
    <sodipodi:guide position="8.4666665,22.749442" orientation="1,0" id="guide890" inkscape:locked="false" inkscape:label="" inkscape:color="rgb(0,0,255)" />
    <sodipodi:guide position="1.905,8.4666665" orientation="0,1" id="guide892" inkscape:locked="false" inkscape:label="" inkscape:color="rgb(0,0,255)" />
    <sodipodi:guide position="3.5671502,6.1539247" orientation="1,0" id="guide894" inkscape:locked="false" />
    <sodipodi:guide position="13.429966,4.3703496" orientation="1,0" id="guide896" inkscape:locked="false" />
    <sodipodi:guide position="7.9512683,10.664054" orientation="1,0" id="guide1887" inkscape:locked="false" />
    <sodipodi:guide position="8.9989648,9.3357244" orientation="1,0" id="guide1889" inkscape:locked="false" />
    <sodipodi:guide position="10.514383,15.416106" orientation="0,1" id="guide1909" inkscape:locked="false" />
    <sodipodi:guide position="8.9989648,2.3547916" orientation="0,1" id="guide1911" inkscape:locked="false" />
    <sodipodi:guide position="0.92604166,14.47271" orientation="0,1" id="guide1915" inkscape:locked="false" />
  </sodipodi:namedview>
  <metadata id="metadata5">
    <rdf:RDF>
      <cc:Work rdf:about="">
        <dc:format>image/svg+xml</dc:format>
        <dc:type rdf:resource="http://purl.org/dc/dcmitype/StillImage" />
        <dc:title />
      </cc:Work>
    </rdf:RDF>
  </metadata>
  <g inkscape:label="Ebene 1" inkscape:groupmode="layer" id="layer1" transform="translate(0,-280.06666)">
    <g id="g861" transform="translate(0,3e-6)" />
    <g id="g872" transform="translate(-0.36987244,0.16524316)">
      <g style="stroke-width:1.08401775" id="g4587-6-36" transform="matrix(0.92249414,0,0,0.92249414,3.6730698,20.446052)" />
      <g style="stroke-width:1.08401775" id="g4587-6-3" transform="matrix(0.92249413,0,0,0.92249413,1.3233395,22.795782)">
        <path sodipodi:nodetypes="sssssssss" inkscape:connector-curvature="0" id="rect858-7-5" d="m 4.3451731,282.52728 5.2912021,-0.0187 c 0.3500595,-10e-4 3.1107888,2.50063 3.1056718,3.18986 l -0.04677,6.30033 c -0.0051,0.68923 -0.705081,1.24414 -1.580899,1.24414 H 5.1215911 c -0.8758182,0 -1.5808993,-0.55489 -1.5808993,-1.24414 v -8.22734 c 0,-0.68925 -0.071331,-1.24104 0.8044813,-1.24414 z" style="opacity:1;fill:white;fill-opacity:1;stroke:none;stroke-width:0.80881274;stroke-linecap:round;stroke-linejoin:round;stroke-miterlimit:4;stroke-dasharray:none;stroke-dashoffset:74.26771545;stroke-opacity:1;paint-order:fill markers stroke" transform="translate(0,-5.1118766e-6)" />
        <path sodipodi:nodetypes="ccsscsscsscssccccscscccccccccccc" style="fill:#94c11f;fill-opacity:1;stroke:none;stroke-width:0.28681302;stroke-opacity:1" id="path8-5-6" d="m 12.483608,284.69686 c 0.105833,0.10583 0.211666,0.26458 0.291041,0.47625 0.07937,0.18521 0.132292,0.37042 0.132292,0.52917 v 7.11729 c 0,0.15875 -0.05292,0.3175 -0.185208,0.42333 -0.105833,0.10584 -0.264583,0.18521 -0.423333,0.18521 H 3.9904835 c -0.15875,0 -0.3175,-0.0529 -0.4233333,-0.18521 -0.1058333,-0.10583 -0.1852083,-0.26458 -0.1852083,-0.42333 v -9.86896 c 0,-0.15875 0.052917,-0.3175 0.1852083,-0.42333 0.1058333,-0.10584 0.2645833,-0.18521 0.4233333,-0.18521 h 5.5297916 c 0.15875,0 0.3439583,0.0529 0.5291659,0.13229 0.211667,0.0794 0.370417,0.18521 0.47625,0.29104 z m -0.370417,1.61396 H 9.5467334 c -0.15875,0 -0.3174999,-0.0529 -0.4233333,-0.18521 -0.1058333,-0.10583 -0.1852083,-0.26458 -0.1852083,-0.42333 v -2.56646 h -4.7625 v 9.49854 h 7.9110412 v -6.32354 z m -2.3812492,-3.12208 v 2.32833 h 2.3283332 c -0.05292,-0.13229 -0.07937,-0.21167 -0.132291,-0.26458 l -1.9314585,-1.93146 c -0.05292,-0.0529 -0.1322921,-0.0794 -0.2645837,-0.13229 z" class="st2" inkscape:connector-curvature="0" transform="translate(0,-5.1118766e-6)" />
      </g>
      <path inkscape:connector-curvature="0" d="m 8.0375038,285.76205 a 0.8875555,0.8875555 0 0 1 0.8875544,0.88758 v 1.77509 H 7.1499477 v -1.77509 a 0.8875555,0.8875555 0 0 1 0.8875561,-0.88758 z m 1.3313333,2.66267 v -1.77509 a 1.3313333,1.3313333 0 0 0 -2.6626666,0 v 1.77509 a 0.8875555,0.8875555 0 0 0 -0.887556,0.88756 v 2.21889 a 0.8875555,0.8875555 0 0 0 0.887556,0.88755 h 2.6626666 a 0.8875555,0.8875555 0 0 0 0.8875549,-0.88755 v -2.21889 a 0.8875555,0.8875555 0 0 0 -0.8875549,-0.88756 z" id="path2" style="fill:#bd1d1d;fill-opacity:1;stroke-width:0.26458332" />
    </g>
  </g>
  <style id="style817" type="text/css">
	.st0{fill:#FFFFFF;}
	.st1{fill:none;}
	.st2{fill:#3E5389;}
</style>
</svg>
